<?xml version="1.0" encoding="UTF-8"?>
<svg width="16px" height="16px" viewBox="0 0 16 16" version="1.1" xmlns="http://www.w3.org/2000/svg" xmlns:xlink="http://www.w3.org/1999/xlink">
    <!-- Generator: Sketch 53.2 (72643) - https://sketchapp.com -->
    <title>Fill 1备份 4</title>
    <desc>Created with Sketch.</desc>
    <g id="页面-1" stroke="none" stroke-width="1" fill="none" fill-rule="evenodd">
        <g id="概况备份-3" transform="translate(-1882.000000, -172.000000)" fill="#366AA8">
            <path d="M1894.62553,183.778707 C1894.85196,184.005146 1894.85196,184.383457 1894.62553,184.62554 C1894.38391,184.852893 1894.00561,184.852893 1893.77872,184.62554 L1890.00737,180.854527 L1886.23601,184.62554 C1885.99439,184.852893 1885.6162,184.852893 1885.38966,184.62554 C1885.14758,184.383914 1885.14758,184.005602 1885.38966,183.778707 L1889.16101,180.007694 L1885.38966,176.23668 C1885.14758,175.994597 1885.14758,175.616857 1885.38966,175.389847 C1885.6162,175.148221 1885.99439,175.148221 1886.23601,175.389847 L1890.00737,179.16086 L1893.77872,175.389847 C1894.00515,175.148221 1894.38345,175.148221 1894.62553,175.389847 C1894.85196,175.6164 1894.85196,175.994597 1894.62553,176.23668 L1890.85417,180.007694 L1894.62553,183.778707 Z M1895.65321,174.346606 C1892.53911,171.217798 1887.47505,171.217798 1884.34679,174.346606 C1881.21774,177.475871 1881.21774,182.539402 1884.34679,185.652794 C1887.47562,188.782402 1892.53911,188.782402 1895.65321,185.652794 C1898.78226,182.539402 1898.78226,177.475871 1895.65321,174.346606 L1895.65321,174.346606 Z" id="Fill-1备份-4"></path>
        </g>
    </g>
</svg>