<?xml version="1.0" encoding="UTF-8"?>
<svg width="46px" height="14px" viewBox="0 0 46 14" version="1.1" xmlns="http://www.w3.org/2000/svg" xmlns:xlink="http://www.w3.org/1999/xlink">
    <!-- Generator: Sketch 63 (92445) - https://sketch.com -->
    <title>菜单标题装饰</title>
    <desc>Created with Sketch.</desc>
    <g id="页面-1" stroke="none" stroke-width="1" fill="none" fill-rule="evenodd">
        <g id="农业资产切图备份" transform="translate(-632.000000, -49.000000)" fill="#244279">
            <g id="菜单栏" transform="translate(632.000000, 34.000000)">
                <g id="菜单标题装饰" transform="translate(0.000000, 15.000000)">
                    <polygon id="矩形备份-5" points="44.0472357 -2.07597828e-13 46 -2.07597828e-13 36.9527643 14 35 14"></polygon>
                    <polygon id="矩形备份-10" points="37.0472357 -2.07597828e-13 39 -2.07597828e-13 29.9527643 14 28 14"></polygon>
                    <polygon id="矩形备份-11" points="31.0472357 -2.07597828e-13 33 -2.07597828e-13 23.9527643 14 22 14"></polygon>
                    <polygon id="矩形备份-14" points="23.0472357 -2.07597828e-13 25 -2.07597828e-13 15.9527643 14 14 14"></polygon>
                    <polygon id="矩形备份-13" points="16.0472357 -2.07597828e-13 18 -2.07597828e-13 8.95276435 14 7 14"></polygon>
                    <polygon id="矩形备份-12" points="9.04723565 -2.07597828e-13 11 -2.07597828e-13 1.95276435 14 2.01505479e-14 14"></polygon>
                </g>
            </g>
        </g>
    </g>
</svg>