<?xml version="1.0" encoding="UTF-8"?>
<svg width="22px" height="22px" viewBox="0 0 22 22" version="1.1" xmlns="http://www.w3.org/2000/svg" xmlns:xlink="http://www.w3.org/1999/xlink">
    <!-- Generator: Sketch 53.2 (72643) - https://sketchapp.com -->
    <title>编组</title>
    <desc>Created with Sketch.</desc>
    <defs>
        <polygon id="path-1" points="19.9999758 19.0000352 41.9999758 19.0000352 41.9999758 41.0000352 19.9999758 41.0000352"></polygon>
    </defs>
    <g id="页面-1" stroke="none" stroke-width="1" fill="none" fill-rule="evenodd">
        <g id="概况备份-4" transform="translate(-1790.000000, -109.000000)">
            <g id="编组-3备份-2" transform="translate(120.000000, 90.000000)">
                <g id="温度备份-8" transform="translate(1650.000000, 0.000000)">
                    <g id="分组-7">
                        <g id="编组">
                            <mask id="mask-2" fill="white">
                                <use xlink:href="#path-1"></use>
                            </mask>
                            <g id="Clip-2"></g>
                            <path d="M33.4133516,24.5000704 C33.6563636,24.5002024 33.8533076,24.6972784 33.8531756,24.9402904 C33.8530436,24.9963904 33.8423516,25.0519624 33.8214956,25.1039704 L29.8284956,35.0854144 C29.7281756,35.3358184 29.4855596,35.5000264 29.2157516,35.5000264 L28.1124956,35.5000264 C27.8694836,35.5000264 27.6725396,35.3028184 27.6726716,35.0599384 C27.6726716,35.0038384 27.6834956,34.9482664 27.7043516,34.8961264 L31.6973516,24.9148144 C31.7975396,24.6646744 32.0396276,24.5004664 32.3090396,24.5000704 L33.4133516,24.5000704 Z M33.1991156,32.2008184 C33.1987196,31.5933544 33.6908156,31.1004664 34.2982796,31.1000704 C34.9075916,31.1004664 35.3995556,31.5933544 35.3991596,32.2008184 C35.3986316,32.8077544 34.9069316,33.2997184 34.2999956,33.3001144 C33.6923996,33.3005104 33.1996436,32.8084144 33.1991156,32.2008184 Z M26.5999076,27.8000704 C26.5999076,27.1924744 27.0923996,26.7001144 27.6999956,26.7001144 C28.3075916,26.7001144 28.8000836,27.1924744 28.8000836,27.8000704 C28.8000836,28.4075344 28.3075916,28.9000264 27.6999956,28.9000264 C27.0923996,28.9000264 26.5999076,28.4075344 26.5999076,27.8000704 Z" id="Fill-1" fill="#68E0E3" mask="url(#mask-2)"></path>
                            <circle id="椭圆形" stroke="#68E0E3" stroke-width="1.65" mask="url(#mask-2)" cx="31" cy="30" r="10.175"></circle>
                        </g>
                    </g>
                </g>
            </g>
        </g>
    </g>
</svg>