<?xml version="1.0" encoding="UTF-8"?>
<svg width="21px" height="22px" viewBox="0 0 21 22" version="1.1" xmlns="http://www.w3.org/2000/svg" xmlns:xlink="http://www.w3.org/1999/xlink">
    <!-- Generator: Sketch 53.2 (72643) - https://sketchapp.com -->
    <title>编组</title>
    <desc>Created with Sketch.</desc>
    <defs>
        <polygon id="path-1" points="0 0 20.1294325 0 20.1294325 21.3359569 0 21.3359569"></polygon>
    </defs>
    <g id="页面-1" stroke="none" stroke-width="1" fill="none" fill-rule="evenodd">
        <g id="概况备份-4" transform="translate(-590.000000, -109.000000)">
            <g id="编组-3备份-2" transform="translate(120.000000, 90.000000)">
                <g id="温度备份-2" transform="translate(450.000000, 0.000000)">
                    <g id="分组-7">
                        <g id="编组" transform="translate(20.000000, 19.000000)">
                            <mask id="mask-2" fill="white">
                                <use xlink:href="#path-1"></use>
                            </mask>
                            <g id="Clip-2"></g>
                            <path d="M16.325205,10.497032 L14.950195,5.002972 C15.907385,4.891562 16.853655,4.653012 17.774575,4.368962 L18.581485,9.210682 C17.888455,9.683622 17.079595,10.007192 16.275935,10.248342 L16.325205,10.497032 Z M12.536355,10.764572 C11.882585,10.653032 11.150815,10.324392 10.511865,10.190752 C9.280505,9.888112 8.110765,9.879402 6.845865,9.791392 L7.168785,3.561922 C7.847255,3.743272 8.302905,3.936972 8.955635,4.196062 C10.376275,4.744142 11.871405,5.036122 13.393835,5.002972 L14.892475,10.651732 C14.116635,10.747802 13.314795,10.895092 12.543895,10.764572 L12.536355,10.764572 Z M1.615835,3.179462 C2.913365,2.924402 4.220385,2.824172 5.517915,3.079232 L5.339555,9.765392 C4.042935,9.898382 2.782975,10.273822 1.625065,10.872342 L1.625065,3.079232 L1.615835,3.179462 Z M20.121335,9.590802 L19.125925,3.105232 C19.064305,2.699632 18.685485,2.420782 18.279885,2.482402 C18.218265,2.491762 18.158075,2.508792 18.100745,2.533232 C18.056155,2.533232 13.643305,4.375592 9.564815,2.748642 C5.746325,1.262872 3.135015,1.389102 1.745835,1.656642 L1.745835,0.742872 C1.745835,0.248482 1.132885,-0.133198 0.613015,0.043992 C0.236665,0.172302 -6.5e-05,0.546962 -6.5e-05,0.944632 L-6.5e-05,20.391202 C-6.5e-05,20.788872 0.236665,21.163662 0.613015,21.291842 C1.132885,21.469032 1.745835,21.087482 1.745835,20.593092 L1.745835,12.614342 C3.087695,11.780392 4.494295,11.311872 6.073145,11.254802 L6.117735,11.254802 C7.527325,11.278462 8.928855,11.470472 10.292945,11.826802 C10.939175,11.967982 11.615305,12.116572 12.298585,12.227982 C14.993355,12.686622 17.755335,11.967072 19.883695,10.251852 C20.068685,10.085322 20.157995,9.837022 20.121335,9.590802 L20.121335,9.590802 Z" id="Fill-1" fill="#68E0E3" mask="url(#mask-2)"></path>
                        </g>
                    </g>
                </g>
            </g>
        </g>
    </g>
</svg>